<?xml version="1.0" encoding="UTF-8" standalone="no"?>
<svg
   xmlns:dc="http://purl.org/dc/elements/1.1/"
   xmlns:cc="http://creativecommons.org/ns#"
   xmlns:rdf="http://www.w3.org/1999/02/22-rdf-syntax-ns#"
   xmlns:svg="http://www.w3.org/2000/svg"
   xmlns="http://www.w3.org/2000/svg"
   xmlns:sodipodi="http://sodipodi.sourceforge.net/DTD/sodipodi-0.dtd"
   xmlns:inkscape="http://www.inkscape.org/namespaces/inkscape"
   version="1.1"
   width="170.6px"
   height="23.7px"
   viewBox="0 0 170.6 23.7"
   id="svg30"
   sodipodi:docname="logo.svg"
   inkscape:version="0.92.3 (2405546, 2018-03-11)">
  <metadata
     id="metadata36">
    <rdf:RDF>
      <cc:Work
         rdf:about="">
        <dc:format>image/svg+xml</dc:format>
        <dc:type
           rdf:resource="http://purl.org/dc/dcmitype/StillImage" />
        <dc:title></dc:title>
      </cc:Work>
    </rdf:RDF>
  </metadata>
  <defs
     id="defs34" />
  <sodipodi:namedview
     pagecolor="#ffffff"
     bordercolor="#666666"
     borderopacity="1"
     objecttolerance="10"
     gridtolerance="10"
     guidetolerance="10"
     inkscape:pageopacity="0"
     inkscape:pageshadow="2"
     inkscape:window-width="1346"
     inkscape:window-height="663"
     id="namedview32"
     showgrid="false"
     inkscape:pagecheckerboard="true"
     inkscape:zoom="3.528722"
     inkscape:cx="87.097163"
     inkscape:cy="28.968489"
     inkscape:window-x="183"
     inkscape:window-y="30"
     inkscape:window-maximized="0"
     inkscape:current-layer="svg30" />
  <g
     style="display:inline;fill:#ffffff;fill-opacity:1;stroke:none;stroke-opacity:1"
     id="g2137-6-8"
     transform="matrix(2.5113738,0,0,2.5113738,-45.877089,11902.913)">
    <path
       style="fill:#ffffff;fill-opacity:1;stroke:none;stroke-width:0.10029312;stroke-opacity:1"
       d="m 51.924991,-4732.0767 v -0.7811 l 0.479837,-0.4726 0.479837,-0.4726 h 0.773827 0.773826 v 0.8327 0.8327 l -0.416798,0.421 -0.416798,0.4209 h -0.836866 -0.836865 z"
       id="path2287-47-4"
       inkscape:connector-curvature="0"
       sodipodi:nodetypes="ccccccccccccc" />
    <path
       style="fill:#ffffff;fill-opacity:1;stroke:none;stroke-width:0.10029312;stroke-opacity:1"
       d="m 30.379801,-4731.1049 c -1.063829,-0.2986 -1.839962,-0.9328 -2.264491,-1.8503 -0.193014,-0.4171 -0.213896,-0.6656 -0.242713,-2.8885 l -0.03153,-2.4321 h 0.758657 0.758655 v 2.2598 c 0,2.572 0.04182,2.7665 0.696874,3.2411 0.730076,0.5288 1.819846,0.5146 2.611643,-0.034 0.641306,-0.4444 0.703208,-0.7316 0.703208,-3.2624 v -2.2044 h 0.760153 0.760154 l -0.03303,2.382 -0.03303,2.3819 -0.315453,0.6658 c -0.351624,0.7422 -1.043177,1.3595 -1.836375,1.6394 -0.655911,0.2314 -1.67047,0.2765 -2.292723,0.1018 z m -9.412703,-0.336 c -1.376931,-0.4759 -2.180025,-1.7006 -2.180025,-3.3246 0,-1.4607 0.607327,-2.5139 1.792743,-3.1091 l 0.699138,-0.351 2.083996,-0.032 2.083995,-0.032 v 0.7594 0.7595 h -1.903539 c -2.220123,0 -2.526034,0.075 -2.977319,0.7265 -0.258148,0.3728 -0.284237,0.4895 -0.284237,1.2712 0,1.031 0.222532,1.4907 0.887671,1.8337 0.371221,0.1913 0.624534,0.2195 2.346782,0.2605 l 1.930642,0.046 v 0.6891 0.689 h -1.980789 c -1.635206,0 -2.07121,-0.035 -2.499058,-0.1824 z m 16.335529,-2.1963 c 0.04178,-2.6894 0.08181,-2.863 0.863262,-3.7447 0.623301,-0.7032 1.411841,-1.017 2.701123,-1.0747 l 1.028005,-0.046 v 0.7654 0.7653 H 41.01363 c -1.129792,0 -1.655762,0.2342 -2.027114,0.9027 -0.242355,0.4362 -0.251854,0.5242 -0.284284,2.6327 l -0.03355,2.1813 h -0.701529 -0.701529 z m 8.209969,2.1788 c -0.793043,-0.2852 -1.397199,-0.8395 -1.809969,-1.6607 -0.326778,-0.65 -0.348365,-0.7535 -0.343487,-1.6464 0.0044,-0.7981 0.0462,-1.0424 0.257682,-1.5044 0.459053,-1.003 1.071933,-1.544 2.09215,-1.847 0.411586,-0.1222 1.005299,-0.1589 2.572861,-0.1589 h 2.037806 v 3.5103 3.5102 H 49.56744 48.815242 v -2.758 -2.7581 h -1.322293 c -1.115198,0 -1.386154,0.031 -1.730056,0.1991 -0.638255,0.3116 -0.9031,0.7902 -0.940392,1.6991 -0.05572,1.3581 0.508929,2.0178 1.850099,2.1614 l 0.638245,0.068 v 0.6941 0.694 h -0.626832 c -0.360128,0 -0.858542,-0.087 -1.171417,-0.1995 z"
       id="path2147-8-4-0"
       inkscape:connector-curvature="0" />
  </g>
  <g
     aria-label="MAKERTECH"
     transform="matrix(0.18201704,0,0,0.18201704,95.547104,-128.17833)"
     style="font-style:normal;font-variant:normal;font-weight:normal;font-stretch:normal;font-size:54.48849487px;line-height:125%;font-family:Giorgio;-inkscape-font-specification:'Giorgio, Normal';font-variant-ligatures:normal;font-variant-caps:normal;font-variant-numeric:normal;font-feature-settings:normal;text-align:start;letter-spacing:0px;word-spacing:0px;writing-mode:lr-tb;text-anchor:start;display:inline;fill:#ffffff;fill-opacity:1;stroke:none;stroke-width:3.01380968;stroke-linecap:butt;stroke-linejoin:miter;stroke-miterlimit:4;stroke-dasharray:none;stroke-opacity:1"
     id="flowRoot4635-3-48-7-0-2-2">
    <path
       d="M 57.034605,759.10517 H 53.22041 v -32.47515 l -14.929848,24.6288 q -0.272442,0.43591 -0.70835,0.70835 -0.435908,0.21796 -0.926304,0.21796 -1.035282,0 -1.634655,-0.92631 l -14.875359,-24.6288 v 32.47515 h -3.814195 v -39.28621 q 0,-1.4167 1.362212,-1.79812 0.599374,-0.21795 1.198747,0.0545 0.653862,0.21795 0.980793,0.76284 l 16.782457,27.78913 16.836944,-27.78913 q 0.326931,-0.54489 0.926305,-0.76284 0.599373,-0.27244 1.198747,-0.0545 0.599373,0.16347 0.980793,0.65386 0.435908,0.4904 0.435908,1.14426 z"
       style="font-style:normal;font-variant:normal;font-weight:normal;font-stretch:normal;font-size:54.48849487px;line-height:125%;font-family:Giorgio;-inkscape-font-specification:'Giorgio, Normal';font-variant-ligatures:normal;font-variant-caps:normal;font-variant-numeric:normal;font-feature-settings:normal;text-align:start;letter-spacing:3.7188015px;writing-mode:lr-tb;text-anchor:start;fill:#ffffff;fill-opacity:1;stroke:none;stroke-width:3.01380968;stroke-miterlimit:4;stroke-dasharray:none;stroke-opacity:1"
       id="path4640" />
    <path
       d="M 99.985971,748.09849 H 76.337964 l -5.285384,11.00668 h -4.304591 l 19.724835,-40.10353 q 0.544885,-1.08977 1.689143,-1.08977 1.144259,0 1.689144,1.08977 l 19.833809,40.10353 h -4.19561 z m -1.852609,-3.81419 -9.971395,-20.16075 -9.971394,20.16075 z"
       style="font-style:normal;font-variant:normal;font-weight:normal;font-stretch:normal;font-size:54.48849487px;line-height:125%;font-family:Giorgio;-inkscape-font-specification:'Giorgio, Normal';font-variant-ligatures:normal;font-variant-caps:normal;font-variant-numeric:normal;font-feature-settings:normal;text-align:start;letter-spacing:3.7188015px;writing-mode:lr-tb;text-anchor:start;fill:#ffffff;fill-opacity:1;stroke:none;stroke-width:3.01380968;stroke-miterlimit:4;stroke-dasharray:none;stroke-opacity:1"
       id="path4642" />
    <path
       d="m 148.96088,718.29328 -17.76325,18.68956 17.76325,22.06784 h -4.90397 l -15.47473,-19.28893 -4.68601,4.90397 v 14.43945 h -3.8142 v -40.81189 h 3.8142 v 20.8691 l 19.83381,-20.8691 h 5.2309 z"
       style="font-style:normal;font-variant:normal;font-weight:normal;font-stretch:normal;font-size:54.48849487px;line-height:125%;font-family:Giorgio;-inkscape-font-specification:'Giorgio, Normal';font-variant-ligatures:normal;font-variant-caps:normal;font-variant-numeric:normal;font-feature-settings:normal;text-align:start;letter-spacing:3.7188015px;writing-mode:lr-tb;text-anchor:start;fill:#ffffff;fill-opacity:1;stroke:none;stroke-width:3.01380968;stroke-miterlimit:4;stroke-dasharray:none;stroke-opacity:1"
       id="path4644" />
    <path
       d="m 160.76781,722.05299 v 12.75031 h 17.87222 l -1.14426,3.81419 h -16.72796 v 16.67348 h 21.90437 v 3.8142 h -23.81147 q -0.76284,0 -1.36221,-0.54489 -0.54489,-0.59937 -0.54489,-1.36221 v -37.05218 q 0,-0.76284 0.54489,-1.30772 0.59937,-0.54489 1.36221,-0.54489 h 23.81147 v 3.75971 z"
       style="font-style:normal;font-variant:normal;font-weight:normal;font-stretch:normal;font-size:54.48849487px;line-height:125%;font-family:Giorgio;-inkscape-font-specification:'Giorgio, Normal';font-variant-ligatures:normal;font-variant-caps:normal;font-variant-numeric:normal;font-feature-settings:normal;text-align:start;letter-spacing:3.7188015px;writing-mode:lr-tb;text-anchor:start;fill:#ffffff;fill-opacity:1;stroke:none;stroke-width:3.01380968;stroke-miterlimit:4;stroke-dasharray:none;stroke-opacity:1"
       id="path4646" />
    <path
       d="M 221.46711,759.10517 208.2264,742.64964 h -12.53235 v 16.45553 h -3.8142 v -38.8503 q 0,-0.76284 0.54489,-1.30772 0.59937,-0.59938 1.36221,-0.59938 h 17.43632 0.10898 q 2.45198,0.0545 4.57703,1.03528 2.17954,0.9808 3.81419,2.61545 1.63466,1.63466 2.56096,3.86869 0.92631,2.17954 0.92631,4.63152 0,2.28851 -0.81733,4.30459 -0.76284,2.01607 -2.17954,3.65073 -1.36221,1.58016 -3.21482,2.66993 -1.85261,1.03529 -4.03215,1.36222 l 13.40417,16.61899 z m -25.77306,-20.26972 h 15.36575 q 1.68915,0 3.21482,-0.65386 1.52568,-0.65387 2.66994,-1.79812 1.14426,-1.14426 1.79812,-2.61545 0.65386,-1.52568 0.65386,-3.26931 0,-1.74363 -0.65386,-3.26931 -0.65386,-1.52568 -1.79812,-2.61545 -1.14426,-1.14426 -2.66994,-1.79812 -1.52567,-0.65386 -3.21482,-0.65386 h -15.36575 z"
       style="font-style:normal;font-variant:normal;font-weight:normal;font-stretch:normal;font-size:54.48849487px;line-height:125%;font-family:Giorgio;-inkscape-font-specification:'Giorgio, Normal';font-variant-ligatures:normal;font-variant-caps:normal;font-variant-numeric:normal;font-feature-settings:normal;text-align:start;letter-spacing:3.7188015px;writing-mode:lr-tb;text-anchor:start;fill:#ffffff;fill-opacity:1;stroke:none;stroke-width:3.01380968;stroke-miterlimit:4;stroke-dasharray:none;stroke-opacity:1"
       id="path4648" />
    <path
       d="m 231.51849,718.29328 h 29.53276 v 3.75971 h -12.85928 v 37.05218 h -3.8142 v -37.05218 h -12.85928 v -3.75971 z"
       style="font-style:normal;font-variant:normal;font-weight:normal;font-stretch:normal;font-size:54.48849487px;line-height:125%;font-family:Giorgio;-inkscape-font-specification:'Giorgio, Normal';font-variant-ligatures:normal;font-variant-caps:normal;font-variant-numeric:normal;font-feature-settings:normal;text-align:start;letter-spacing:3.7188015px;writing-mode:lr-tb;text-anchor:start;fill:#ffffff;fill-opacity:1;stroke:none;stroke-width:3.01380968;stroke-miterlimit:4;stroke-dasharray:none;stroke-opacity:1"
       id="path4650" />
    <path
       d="m 273.23875,722.05299 v 12.75031 h 17.87223 l -1.14426,3.81419 h -16.72797 v 16.67348 h 21.90438 v 3.8142 h -23.81147 q -0.76284,0 -1.36222,-0.54489 -0.54488,-0.59937 -0.54488,-1.36221 v -37.05218 q 0,-0.76284 0.54488,-1.30772 0.59938,-0.54489 1.36222,-0.54489 h 23.81147 v 3.75971 z"
       style="font-style:normal;font-variant:normal;font-weight:normal;font-stretch:normal;font-size:54.48849487px;line-height:125%;font-family:Giorgio;-inkscape-font-specification:'Giorgio, Normal';font-variant-ligatures:normal;font-variant-caps:normal;font-variant-numeric:normal;font-feature-settings:normal;text-align:start;letter-spacing:3.7188015px;writing-mode:lr-tb;text-anchor:start;fill:#ffffff;fill-opacity:1;stroke:none;stroke-width:3.01380968;stroke-miterlimit:4;stroke-dasharray:none;stroke-opacity:1"
       id="path4652" />
    <path
       d="m 338.13368,754.14671 q -5.55782,5.28539 -15.09331,5.28539 -4.90397,0 -8.77265,-1.4167 -3.81419,-1.4167 -6.48413,-4.08664 -2.66994,-2.66994 -4.08664,-6.48413 -1.4167,-3.86868 -1.4167,-8.77265 0,-4.84947 1.4167,-8.71816 1.4167,-3.86868 4.08664,-6.53862 2.66994,-2.66993 6.48413,-4.08663 3.86868,-1.4167 8.77265,-1.4167 8.17327,0 13.45866,3.97766 l -2.28852,3.05135 q -4.30459,-3.21482 -11.17014,-3.21482 -8.28225,0 -12.64133,4.35908 -4.30459,4.35908 -4.30459,12.58684 0,8.28225 4.30459,12.64133 4.35908,4.35908 12.64133,4.35908 3.92317,0 7.0835,-1.08977 3.16034,-1.08977 5.33988,-3.21482 z"
       style="font-style:normal;font-variant:normal;font-weight:normal;font-stretch:normal;font-size:54.48849487px;line-height:125%;font-family:Giorgio;-inkscape-font-specification:'Giorgio, Normal';font-variant-ligatures:normal;font-variant-caps:normal;font-variant-numeric:normal;font-feature-settings:normal;text-align:start;letter-spacing:3.7188015px;writing-mode:lr-tb;text-anchor:start;fill:#ffffff;fill-opacity:1;stroke:none;stroke-width:3.01380968;stroke-miterlimit:4;stroke-dasharray:none;stroke-opacity:1"
       id="path4654" />
    <path
       d="m 374.46723,718.29328 h 3.81419 v 40.81189 h -3.81419 v -20.48768 h -21.90437 v 20.48768 h -3.8142 v -40.81189 h 3.8142 v 16.51002 h 21.90437 v -16.51002 z"
       style="font-style:normal;font-variant:normal;font-weight:normal;font-stretch:normal;font-size:54.48849487px;line-height:125%;font-family:Giorgio;-inkscape-font-specification:'Giorgio, Normal';font-variant-ligatures:normal;font-variant-caps:normal;font-variant-numeric:normal;font-feature-settings:normal;text-align:start;letter-spacing:3.7188015px;writing-mode:lr-tb;text-anchor:start;fill:#ffffff;fill-opacity:1;stroke:none;stroke-width:3.01380968;stroke-miterlimit:4;stroke-dasharray:none;stroke-opacity:1"
       id="path4656" />
  </g>
  <g
     aria-label="EDITION"
     transform="matrix(0.18201704,0,0,0.18201704,95.720902,-117.41052)"
     style="font-style:normal;font-variant:normal;font-weight:normal;font-stretch:normal;font-size:54.48849487px;line-height:125%;font-family:Giorgio;-inkscape-font-specification:'Giorgio, Normal';font-variant-ligatures:normal;font-variant-caps:normal;font-variant-numeric:normal;font-feature-settings:normal;text-align:start;letter-spacing:0px;word-spacing:0px;writing-mode:lr-tb;text-anchor:start;display:inline;fill:#ffffff;fill-opacity:1;stroke:none;stroke-width:3.01380968;stroke-linecap:butt;stroke-linejoin:miter;stroke-miterlimit:4;stroke-dasharray:none;stroke-opacity:1"
     id="flowRoot4635-3-48-7-0-2-2-2">
    <path
       d="M 17.966354,722.05299 V 734.8033 H 35.83858 l -1.144258,3.81419 H 17.966354 v 16.67348 h 21.904375 v 3.8142 H 16.059256 q -0.762838,0 -1.362212,-0.54489 -0.544885,-0.59937 -0.544885,-1.36221 v -37.05218 q 0,-0.76284 0.544885,-1.30772 0.599374,-0.54489 1.362212,-0.54489 h 23.811473 v 3.75971 z"
       style="font-style:normal;font-variant:normal;font-weight:normal;font-stretch:normal;font-size:54.48849487px;line-height:125%;font-family:Giorgio;-inkscape-font-specification:'Giorgio, Normal';font-variant-ligatures:normal;font-variant-caps:normal;font-variant-numeric:normal;font-feature-settings:normal;text-align:start;letter-spacing:3.7188015px;writing-mode:lr-tb;text-anchor:start;fill:#ffffff;fill-opacity:1;stroke:none;stroke-width:3.01380968;stroke-miterlimit:4;stroke-dasharray:none;stroke-opacity:1"
       id="path4625" />
    <path
       d="M 61.937678,759.10517 H 52.07526 q -0.762839,0 -1.362212,-0.54489 -0.544885,-0.59937 -0.544885,-1.36221 v -37.05218 q 0,-0.76284 0.544885,-1.30772 0.599373,-0.54489 1.362212,-0.54489 h 10.189349 q 4.794987,0 8.554693,1.41671 3.814195,1.36221 6.429643,3.97766 2.615448,2.61544 3.97766,6.42964 1.416701,3.7597 1.416701,8.55469 0,4.7405 -1.47119,8.50021 -1.4167,3.7597 -4.141125,6.42964 -2.669936,2.66994 -6.484131,4.08664 -3.814195,1.4167 -8.609182,1.4167 z m -7.955321,-3.8142 h 7.955321 q 8.118785,0 12.477865,-4.30459 4.413568,-4.35908 4.413568,-12.3144 0,-8.11878 -4.250102,-12.36889 -4.250103,-4.2501 -12.3144,-4.2501 h -8.282252 z"
       style="font-style:normal;font-variant:normal;font-weight:normal;font-stretch:normal;font-size:54.48849487px;line-height:125%;font-family:Giorgio;-inkscape-font-specification:'Giorgio, Normal';font-variant-ligatures:normal;font-variant-caps:normal;font-variant-numeric:normal;font-feature-settings:normal;text-align:start;letter-spacing:3.7188015px;writing-mode:lr-tb;text-anchor:start;fill:#ffffff;fill-opacity:1;stroke:none;stroke-width:3.01380968;stroke-miterlimit:4;stroke-dasharray:none;stroke-opacity:1"
       id="path4627" />
    <path
       d="m 93.263416,718.29328 h 3.814194 v 40.81189 h -3.814194 v -40.81189 z"
       style="font-style:normal;font-variant:normal;font-weight:normal;font-stretch:normal;font-size:54.48849487px;line-height:125%;font-family:Giorgio;-inkscape-font-specification:'Giorgio, Normal';font-variant-ligatures:normal;font-variant-caps:normal;font-variant-numeric:normal;font-feature-settings:normal;text-align:start;letter-spacing:3.7188015px;writing-mode:lr-tb;text-anchor:start;fill:#ffffff;fill-opacity:1;stroke:none;stroke-width:3.01380968;stroke-miterlimit:4;stroke-dasharray:none;stroke-opacity:1"
       id="path4629" />
    <path
       d="m 107.54788,718.29328 h 29.53276 v 3.75971 h -12.85928 v 37.05218 h -3.8142 v -37.05218 h -12.85928 v -3.75971 z"
       style="font-style:normal;font-variant:normal;font-weight:normal;font-stretch:normal;font-size:54.48849487px;line-height:125%;font-family:Giorgio;-inkscape-font-specification:'Giorgio, Normal';font-variant-ligatures:normal;font-variant-caps:normal;font-variant-numeric:normal;font-feature-settings:normal;text-align:start;letter-spacing:3.7188015px;writing-mode:lr-tb;text-anchor:start;fill:#ffffff;fill-opacity:1;stroke:none;stroke-width:3.01380968;stroke-miterlimit:4;stroke-dasharray:none;stroke-opacity:1"
       id="path4631" />
    <path
       d="m 147.63349,718.29328 h 3.81419 v 40.81189 h -3.81419 v -40.81189 z"
       style="font-style:normal;font-variant:normal;font-weight:normal;font-stretch:normal;font-size:54.48849487px;line-height:125%;font-family:Giorgio;-inkscape-font-specification:'Giorgio, Normal';font-variant-ligatures:normal;font-variant-caps:normal;font-variant-numeric:normal;font-feature-settings:normal;text-align:start;letter-spacing:3.7188015px;writing-mode:lr-tb;text-anchor:start;fill:#ffffff;fill-opacity:1;stroke:none;stroke-width:3.01380968;stroke-miterlimit:4;stroke-dasharray:none;stroke-opacity:1"
       id="path4633" />
    <path
       d="m 182.56909,759.4321 q -4.90397,0 -8.77265,-1.4167 -3.81419,-1.4167 -6.48413,-4.08664 -2.66994,-2.66994 -4.08664,-6.48413 -1.4167,-3.86868 -1.4167,-8.77265 0,-4.84947 1.4167,-8.71816 1.4167,-3.86868 4.08664,-6.53862 2.66994,-2.66993 6.48413,-4.08663 3.86868,-1.4167 8.77265,-1.4167 4.90396,0 8.71816,1.4167 3.86868,1.4167 6.53862,4.08663 2.66993,2.66994 4.08663,6.53862 1.41671,3.86869 1.41671,8.71816 0,4.90397 -1.41671,8.77265 -1.4167,3.81419 -4.08663,6.48413 -2.66994,2.66994 -6.53862,4.08664 -3.8142,1.4167 -8.71816,1.4167 z m 0,-37.70604 q -8.28225,0 -12.64133,4.35908 -4.30459,4.35908 -4.30459,12.58684 0,8.28225 4.30459,12.64133 4.35908,4.35908 12.64133,4.35908 8.28225,0 12.58684,-4.35908 4.35908,-4.35908 4.35908,-12.64133 0,-8.22776 -4.35908,-12.58684 -4.30459,-4.35908 -12.58684,-4.35908 z"
       style="font-style:normal;font-variant:normal;font-weight:normal;font-stretch:normal;font-size:54.48849487px;line-height:125%;font-family:Giorgio;-inkscape-font-specification:'Giorgio, Normal';font-variant-ligatures:normal;font-variant-caps:normal;font-variant-numeric:normal;font-feature-settings:normal;text-align:start;letter-spacing:3.7188015px;writing-mode:lr-tb;text-anchor:start;fill:#ffffff;fill-opacity:1;stroke:none;stroke-width:3.01380968;stroke-miterlimit:4;stroke-dasharray:none;stroke-opacity:1"
       id="path4635" />
    <path
       d="m 242.09603,759.4321 q -0.98079,0 -1.52568,-0.81733 L 217.6307,725.86719 v 33.23798 h -3.8142 v -39.28621 q 0,-0.59937 0.32693,-1.08977 0.38142,-0.54488 0.9808,-0.70835 0.59937,-0.21795 1.19874,0 0.59938,0.21796 0.92631,0.70835 l 22.99414,32.80208 v -33.23799 h 3.75971 V 757.525 q 0,0.65386 -0.38142,1.14426 -0.32693,0.4904 -0.92631,0.70835 -0.21795,0.0545 -0.59937,0.0545 z"
       style="font-style:normal;font-variant:normal;font-weight:normal;font-stretch:normal;font-size:54.48849487px;line-height:125%;font-family:Giorgio;-inkscape-font-specification:'Giorgio, Normal';font-variant-ligatures:normal;font-variant-caps:normal;font-variant-numeric:normal;font-feature-settings:normal;text-align:start;letter-spacing:3.7188015px;writing-mode:lr-tb;text-anchor:start;fill:#ffffff;fill-opacity:1;stroke:none;stroke-width:3.01380968;stroke-miterlimit:4;stroke-dasharray:none;stroke-opacity:1"
       id="path4637" />
  </g>
</svg>
